<mxfile host="app.diagrams.net" modified="2022-05-27T15:58:00.095Z" agent="5.0 (Windows NT 10.0; Win64; x64) AppleWebKit/537.36 (KHTML, like Gecko) Chrome/100.0.4896.127 Safari/537.36 OPR/86.0.4363.64" etag="9rd1jBIAfw5yxcZDOOho" version="18.1.3" type="github">
  <diagram id="fZx0LZgwC3nTlSYl1mW-" name="Page-1">
    <mxGraphModel dx="1338" dy="467" grid="1" gridSize="10" guides="1" tooltips="1" connect="1" arrows="1" fold="1" page="1" pageScale="1" pageWidth="827" pageHeight="1169" math="0" shadow="0">
      <root>
        <mxCell id="0" />
        <mxCell id="1" parent="0" />
        <mxCell id="965ezOmiRfgiOUJlIT1A-125" value="" style="rounded=0;whiteSpace=wrap;html=1;fillColor=none;border-style: dotted;dashed=1;" parent="1" vertex="1">
          <mxGeometry x="110" y="1530" width="360" height="560" as="geometry" />
        </mxCell>
        <mxCell id="965ezOmiRfgiOUJlIT1A-2" value="IVM" style="rounded=0;whiteSpace=wrap;html=1;" parent="1" vertex="1">
          <mxGeometry x="340" y="1321.87" width="120" height="60" as="geometry" />
        </mxCell>
        <mxCell id="965ezOmiRfgiOUJlIT1A-3" value="Nome" style="ellipse;whiteSpace=wrap;html=1;" parent="1" vertex="1">
          <mxGeometry x="165" y="1231.87" width="110" height="50" as="geometry" />
        </mxCell>
        <mxCell id="965ezOmiRfgiOUJlIT1A-4" value="&lt;div style=&quot;border-bottom: 1px dotted black&quot;&gt;Morada&lt;/div&gt;" style="ellipse;whiteSpace=wrap;html=1;" parent="1" vertex="1">
          <mxGeometry x="40" y="1231.87" width="110" height="50" as="geometry" />
        </mxCell>
        <mxCell id="965ezOmiRfgiOUJlIT1A-5" value="&lt;u&gt;Número de Série&lt;/u&gt;" style="ellipse;whiteSpace=wrap;html=1;" parent="1" vertex="1">
          <mxGeometry x="346" y="1230" width="110" height="51.87" as="geometry" />
        </mxCell>
        <mxCell id="965ezOmiRfgiOUJlIT1A-6" value="Retalhista" style="rounded=0;whiteSpace=wrap;html=1;" parent="1" vertex="1">
          <mxGeometry x="750" y="1311.87" width="120" height="68.13" as="geometry" />
        </mxCell>
        <mxCell id="965ezOmiRfgiOUJlIT1A-7" value="&lt;u&gt;TIN&lt;/u&gt;" style="ellipse;whiteSpace=wrap;html=1;" parent="1" vertex="1">
          <mxGeometry x="920" y="1281.87" width="110" height="50" as="geometry" />
        </mxCell>
        <mxCell id="965ezOmiRfgiOUJlIT1A-8" value="Nome" style="ellipse;whiteSpace=wrap;html=1;" parent="1" vertex="1">
          <mxGeometry x="920" y="1351" width="110" height="50" as="geometry" />
        </mxCell>
        <mxCell id="965ezOmiRfgiOUJlIT1A-9" value="Largura" style="ellipse;whiteSpace=wrap;html=1;" parent="1" vertex="1">
          <mxGeometry x="160.55" y="1540" width="110" height="50" as="geometry" />
        </mxCell>
        <mxCell id="965ezOmiRfgiOUJlIT1A-10" value="Altura" style="ellipse;whiteSpace=wrap;html=1;" parent="1" vertex="1">
          <mxGeometry x="160" y="1600" width="110" height="50" as="geometry" />
        </mxCell>
        <mxCell id="965ezOmiRfgiOUJlIT1A-11" value="&lt;div style=&quot;border-bottom: 1px dotted black&quot;&gt;Número&lt;/div&gt;" style="ellipse;whiteSpace=wrap;html=1;" parent="1" vertex="1">
          <mxGeometry x="160" y="1657" width="110" height="50" as="geometry" />
        </mxCell>
        <mxCell id="965ezOmiRfgiOUJlIT1A-12" value="Temperatura Ambiente" style="rounded=0;whiteSpace=wrap;html=1;" parent="1" vertex="1">
          <mxGeometry x="640" y="1480" width="120" height="60" as="geometry" />
        </mxCell>
        <mxCell id="965ezOmiRfgiOUJlIT1A-13" value="Frio" style="rounded=0;whiteSpace=wrap;html=1;" parent="1" vertex="1">
          <mxGeometry x="640" y="1690" width="120" height="60" as="geometry" />
        </mxCell>
        <mxCell id="965ezOmiRfgiOUJlIT1A-14" value="Quente" style="rounded=0;whiteSpace=wrap;html=1;" parent="1" vertex="1">
          <mxGeometry x="640" y="1585" width="120" height="60" as="geometry" />
        </mxCell>
        <mxCell id="965ezOmiRfgiOUJlIT1A-15" value="Positivo" style="rounded=0;whiteSpace=wrap;html=1;" parent="1" vertex="1">
          <mxGeometry x="940" y="1652" width="120" height="60" as="geometry" />
        </mxCell>
        <mxCell id="965ezOmiRfgiOUJlIT1A-16" value="Negativo" style="rounded=0;whiteSpace=wrap;html=1;" parent="1" vertex="1">
          <mxGeometry x="940" y="1732" width="120" height="60" as="geometry" />
        </mxCell>
        <mxCell id="965ezOmiRfgiOUJlIT1A-17" value="Produto" style="rounded=0;whiteSpace=wrap;html=1;" parent="1" vertex="1">
          <mxGeometry x="340" y="1940" width="120" height="60" as="geometry" />
        </mxCell>
        <mxCell id="965ezOmiRfgiOUJlIT1A-18" value="&lt;u&gt;Código EAN&lt;/u&gt;" style="ellipse;whiteSpace=wrap;html=1;" parent="1" vertex="1">
          <mxGeometry x="160.55" y="1900" width="110" height="50" as="geometry" />
        </mxCell>
        <mxCell id="965ezOmiRfgiOUJlIT1A-19" value="Texto" style="ellipse;whiteSpace=wrap;html=1;" parent="1" vertex="1">
          <mxGeometry x="160" y="1960" width="110" height="50" as="geometry" />
        </mxCell>
        <mxCell id="965ezOmiRfgiOUJlIT1A-20" value="Descrição" style="ellipse;whiteSpace=wrap;html=1;" parent="1" vertex="1">
          <mxGeometry x="160.55" y="2020" width="110" height="50" as="geometry" />
        </mxCell>
        <mxCell id="965ezOmiRfgiOUJlIT1A-21" value="Rígidos" style="rounded=0;whiteSpace=wrap;html=1;" parent="1" vertex="1">
          <mxGeometry x="580" y="1900" width="120" height="60" as="geometry" />
        </mxCell>
        <mxCell id="965ezOmiRfgiOUJlIT1A-22" value="Flexíveis" style="rounded=0;whiteSpace=wrap;html=1;" parent="1" vertex="1">
          <mxGeometry x="580" y="1980" width="120" height="60" as="geometry" />
        </mxCell>
        <mxCell id="965ezOmiRfgiOUJlIT1A-23" value="Categoria" style="rounded=0;whiteSpace=wrap;html=1;" parent="1" vertex="1">
          <mxGeometry x="340" y="2195" width="120" height="60" as="geometry" />
        </mxCell>
        <mxCell id="965ezOmiRfgiOUJlIT1A-24" value="&lt;u&gt;Nome&lt;/u&gt;" style="ellipse;whiteSpace=wrap;html=1;" parent="1" vertex="1">
          <mxGeometry x="180" y="2170" width="110" height="50" as="geometry" />
        </mxCell>
        <mxCell id="965ezOmiRfgiOUJlIT1A-25" value="Super" style="rounded=0;whiteSpace=wrap;html=1;" parent="1" vertex="1">
          <mxGeometry x="260" y="2480" width="120" height="60" as="geometry" />
        </mxCell>
        <mxCell id="965ezOmiRfgiOUJlIT1A-26" value="Simples" style="rounded=0;whiteSpace=wrap;html=1;" parent="1" vertex="1">
          <mxGeometry x="420" y="2480" width="120" height="60" as="geometry" />
        </mxCell>
        <mxCell id="965ezOmiRfgiOUJlIT1A-28" value="&lt;u&gt;Data&lt;/u&gt;" style="ellipse;whiteSpace=wrap;html=1;" parent="1" vertex="1">
          <mxGeometry x="425" y="1150" width="110" height="50" as="geometry" />
        </mxCell>
        <mxCell id="965ezOmiRfgiOUJlIT1A-29" value="Número Unidades" style="ellipse;whiteSpace=wrap;html=1;" parent="1" vertex="1">
          <mxGeometry x="570" y="1119" width="110" height="50" as="geometry" />
        </mxCell>
        <mxCell id="965ezOmiRfgiOUJlIT1A-30" value="" style="endArrow=none;html=1;rounded=0;entryX=0.5;entryY=1;entryDx=0;entryDy=0;" parent="1" source="965ezOmiRfgiOUJlIT1A-2" target="965ezOmiRfgiOUJlIT1A-5" edge="1">
          <mxGeometry width="50" height="50" relative="1" as="geometry">
            <mxPoint x="570" y="1411.87" as="sourcePoint" />
            <mxPoint x="620" y="1361.87" as="targetPoint" />
          </mxGeometry>
        </mxCell>
        <mxCell id="965ezOmiRfgiOUJlIT1A-31" value="" style="endArrow=none;html=1;rounded=0;entryX=0.5;entryY=1;entryDx=0;entryDy=0;exitX=0.5;exitY=0;exitDx=0;exitDy=0;" parent="1" target="965ezOmiRfgiOUJlIT1A-4" edge="1">
          <mxGeometry width="50" height="50" relative="1" as="geometry">
            <mxPoint x="160" y="1321.87" as="sourcePoint" />
            <mxPoint x="580" y="1371.87" as="targetPoint" />
          </mxGeometry>
        </mxCell>
        <mxCell id="965ezOmiRfgiOUJlIT1A-32" value="" style="endArrow=none;html=1;rounded=0;entryX=0.5;entryY=1;entryDx=0;entryDy=0;exitX=0.5;exitY=0;exitDx=0;exitDy=0;" parent="1" target="965ezOmiRfgiOUJlIT1A-3" edge="1">
          <mxGeometry width="50" height="50" relative="1" as="geometry">
            <mxPoint x="160" y="1321.87" as="sourcePoint" />
            <mxPoint x="310" y="1291.87" as="targetPoint" />
          </mxGeometry>
        </mxCell>
        <mxCell id="965ezOmiRfgiOUJlIT1A-33" value="" style="endArrow=none;html=1;rounded=0;entryX=0;entryY=0.5;entryDx=0;entryDy=0;exitX=1;exitY=0.25;exitDx=0;exitDy=0;" parent="1" source="965ezOmiRfgiOUJlIT1A-6" target="965ezOmiRfgiOUJlIT1A-7" edge="1">
          <mxGeometry width="50" height="50" relative="1" as="geometry">
            <mxPoint x="870" y="1330" as="sourcePoint" />
            <mxPoint x="590" y="1371.87" as="targetPoint" />
          </mxGeometry>
        </mxCell>
        <mxCell id="965ezOmiRfgiOUJlIT1A-34" value="" style="endArrow=none;html=1;rounded=0;exitX=0;exitY=0.5;exitDx=0;exitDy=0;" parent="1" source="965ezOmiRfgiOUJlIT1A-8" edge="1">
          <mxGeometry width="50" height="50" relative="1" as="geometry">
            <mxPoint x="540" y="1421.87" as="sourcePoint" />
            <mxPoint x="870" y="1360" as="targetPoint" />
          </mxGeometry>
        </mxCell>
        <mxCell id="965ezOmiRfgiOUJlIT1A-35" value="" style="endArrow=none;html=1;rounded=0;entryX=1;entryY=0.5;entryDx=0;entryDy=0;exitX=0;exitY=0.25;exitDx=0;exitDy=0;" parent="1" target="965ezOmiRfgiOUJlIT1A-9" edge="1">
          <mxGeometry width="50" height="50" relative="1" as="geometry">
            <mxPoint x="340.0000000000002" y="1600" as="sourcePoint" />
            <mxPoint x="390" y="1550" as="targetPoint" />
          </mxGeometry>
        </mxCell>
        <mxCell id="965ezOmiRfgiOUJlIT1A-36" value="" style="endArrow=none;html=1;rounded=0;entryX=1;entryY=0.5;entryDx=0;entryDy=0;exitX=0;exitY=0.5;exitDx=0;exitDy=0;" parent="1" target="965ezOmiRfgiOUJlIT1A-10" edge="1">
          <mxGeometry width="50" height="50" relative="1" as="geometry">
            <mxPoint x="340.0000000000002" y="1615" as="sourcePoint" />
            <mxPoint x="400" y="1650" as="targetPoint" />
          </mxGeometry>
        </mxCell>
        <mxCell id="965ezOmiRfgiOUJlIT1A-37" value="" style="endArrow=none;html=1;rounded=0;entryX=0;entryY=0.75;entryDx=0;entryDy=0;exitX=1;exitY=0.5;exitDx=0;exitDy=0;" parent="1" source="965ezOmiRfgiOUJlIT1A-11" edge="1">
          <mxGeometry width="50" height="50" relative="1" as="geometry">
            <mxPoint x="380" y="1760" as="sourcePoint" />
            <mxPoint x="340.0000000000002" y="1630" as="targetPoint" />
          </mxGeometry>
        </mxCell>
        <mxCell id="965ezOmiRfgiOUJlIT1A-38" value="" style="endArrow=none;html=1;rounded=0;entryX=1;entryY=0.5;entryDx=0;entryDy=0;exitX=0;exitY=0.25;exitDx=0;exitDy=0;" parent="1" source="965ezOmiRfgiOUJlIT1A-17" target="965ezOmiRfgiOUJlIT1A-18" edge="1">
          <mxGeometry width="50" height="50" relative="1" as="geometry">
            <mxPoint x="370" y="2110" as="sourcePoint" />
            <mxPoint x="420" y="2060" as="targetPoint" />
          </mxGeometry>
        </mxCell>
        <mxCell id="965ezOmiRfgiOUJlIT1A-39" value="" style="endArrow=none;html=1;rounded=0;entryX=1;entryY=0.5;entryDx=0;entryDy=0;exitX=0;exitY=0.5;exitDx=0;exitDy=0;" parent="1" source="965ezOmiRfgiOUJlIT1A-17" target="965ezOmiRfgiOUJlIT1A-19" edge="1">
          <mxGeometry width="50" height="50" relative="1" as="geometry">
            <mxPoint x="380" y="2130" as="sourcePoint" />
            <mxPoint x="430" y="2080" as="targetPoint" />
            <Array as="points" />
          </mxGeometry>
        </mxCell>
        <mxCell id="965ezOmiRfgiOUJlIT1A-40" value="" style="endArrow=none;html=1;rounded=0;entryX=1;entryY=0.5;entryDx=0;entryDy=0;exitX=0;exitY=0.75;exitDx=0;exitDy=0;" parent="1" source="965ezOmiRfgiOUJlIT1A-17" target="965ezOmiRfgiOUJlIT1A-20" edge="1">
          <mxGeometry width="50" height="50" relative="1" as="geometry">
            <mxPoint x="380" y="2100" as="sourcePoint" />
            <mxPoint x="430" y="2050" as="targetPoint" />
          </mxGeometry>
        </mxCell>
        <mxCell id="965ezOmiRfgiOUJlIT1A-41" value="" style="endArrow=none;html=1;rounded=0;entryX=0.5;entryY=1;entryDx=0;entryDy=0;exitX=0;exitY=0.5;exitDx=0;exitDy=0;" parent="1" source="wEU2TF__uhwk8uHvpseI-3" target="965ezOmiRfgiOUJlIT1A-28" edge="1">
          <mxGeometry width="50" height="50" relative="1" as="geometry">
            <mxPoint x="560" y="1169" as="sourcePoint" />
            <mxPoint x="660" y="1270" as="targetPoint" />
            <Array as="points">
              <mxPoint x="480" y="1440" />
            </Array>
          </mxGeometry>
        </mxCell>
        <mxCell id="965ezOmiRfgiOUJlIT1A-42" value="" style="endArrow=none;html=1;rounded=0;entryX=0.5;entryY=1;entryDx=0;entryDy=0;exitX=0.5;exitY=0;exitDx=0;exitDy=0;" parent="1" source="wEU2TF__uhwk8uHvpseI-3" target="965ezOmiRfgiOUJlIT1A-29" edge="1">
          <mxGeometry width="50" height="50" relative="1" as="geometry">
            <mxPoint x="530" y="1380" as="sourcePoint" />
            <mxPoint x="650" y="1260" as="targetPoint" />
          </mxGeometry>
        </mxCell>
        <mxCell id="965ezOmiRfgiOUJlIT1A-43" value="" style="endArrow=none;html=1;rounded=0;exitX=1;exitY=0.5;exitDx=0;exitDy=0;entryX=0;entryY=0.5;entryDx=0;entryDy=0;" parent="1" source="965ezOmiRfgiOUJlIT1A-24" target="965ezOmiRfgiOUJlIT1A-23" edge="1">
          <mxGeometry width="50" height="50" relative="1" as="geometry">
            <mxPoint x="270" y="2330" as="sourcePoint" />
            <mxPoint x="320" y="2280" as="targetPoint" />
          </mxGeometry>
        </mxCell>
        <mxCell id="965ezOmiRfgiOUJlIT1A-44" value="" style="triangle;whiteSpace=wrap;html=1;rotation=-180;" parent="1" vertex="1">
          <mxGeometry x="510" y="1595" width="30" height="40" as="geometry" />
        </mxCell>
        <mxCell id="965ezOmiRfgiOUJlIT1A-45" value="" style="endArrow=none;html=1;rounded=0;exitX=0;exitY=0.5;exitDx=0;exitDy=0;" parent="1" source="965ezOmiRfgiOUJlIT1A-44" edge="1">
          <mxGeometry width="50" height="50" relative="1" as="geometry">
            <mxPoint x="570" y="1560" as="sourcePoint" />
            <mxPoint x="580" y="1615" as="targetPoint" />
          </mxGeometry>
        </mxCell>
        <mxCell id="965ezOmiRfgiOUJlIT1A-46" value="" style="endArrow=none;html=1;rounded=0;" parent="1" edge="1">
          <mxGeometry width="50" height="50" relative="1" as="geometry">
            <mxPoint x="580" y="1720" as="sourcePoint" />
            <mxPoint x="580" y="1510" as="targetPoint" />
          </mxGeometry>
        </mxCell>
        <mxCell id="965ezOmiRfgiOUJlIT1A-47" value="" style="endArrow=none;html=1;rounded=0;entryX=0;entryY=0.5;entryDx=0;entryDy=0;" parent="1" target="965ezOmiRfgiOUJlIT1A-13" edge="1">
          <mxGeometry width="50" height="50" relative="1" as="geometry">
            <mxPoint x="580" y="1720" as="sourcePoint" />
            <mxPoint x="620" y="1710" as="targetPoint" />
          </mxGeometry>
        </mxCell>
        <mxCell id="965ezOmiRfgiOUJlIT1A-48" value="" style="endArrow=none;html=1;rounded=0;entryX=0;entryY=0.5;entryDx=0;entryDy=0;" parent="1" target="965ezOmiRfgiOUJlIT1A-14" edge="1">
          <mxGeometry width="50" height="50" relative="1" as="geometry">
            <mxPoint x="580" y="1615" as="sourcePoint" />
            <mxPoint x="620" y="1710" as="targetPoint" />
          </mxGeometry>
        </mxCell>
        <mxCell id="965ezOmiRfgiOUJlIT1A-49" value="" style="endArrow=none;html=1;rounded=0;entryX=0;entryY=0.5;entryDx=0;entryDy=0;" parent="1" target="965ezOmiRfgiOUJlIT1A-12" edge="1">
          <mxGeometry width="50" height="50" relative="1" as="geometry">
            <mxPoint x="580" y="1510" as="sourcePoint" />
            <mxPoint x="620" y="1610" as="targetPoint" />
          </mxGeometry>
        </mxCell>
        <mxCell id="965ezOmiRfgiOUJlIT1A-50" value="" style="triangle;whiteSpace=wrap;html=1;rotation=-180;" parent="1" vertex="1">
          <mxGeometry x="840" y="1702" width="30" height="40" as="geometry" />
        </mxCell>
        <mxCell id="965ezOmiRfgiOUJlIT1A-51" value="" style="endArrow=none;html=1;rounded=0;exitX=0;exitY=0.5;exitDx=0;exitDy=0;" parent="1" source="965ezOmiRfgiOUJlIT1A-15" edge="1">
          <mxGeometry width="50" height="50" relative="1" as="geometry">
            <mxPoint x="570" y="1652" as="sourcePoint" />
            <mxPoint x="900" y="1682" as="targetPoint" />
          </mxGeometry>
        </mxCell>
        <mxCell id="965ezOmiRfgiOUJlIT1A-52" value="" style="endArrow=none;html=1;rounded=0;entryX=0;entryY=0.5;entryDx=0;entryDy=0;" parent="1" target="965ezOmiRfgiOUJlIT1A-50" edge="1">
          <mxGeometry width="50" height="50" relative="1" as="geometry">
            <mxPoint x="900" y="1722" as="sourcePoint" />
            <mxPoint x="840" y="1602" as="targetPoint" />
          </mxGeometry>
        </mxCell>
        <mxCell id="965ezOmiRfgiOUJlIT1A-53" value="" style="endArrow=none;html=1;rounded=0;" parent="1" edge="1">
          <mxGeometry width="50" height="50" relative="1" as="geometry">
            <mxPoint x="900" y="1762" as="sourcePoint" />
            <mxPoint x="900" y="1682" as="targetPoint" />
          </mxGeometry>
        </mxCell>
        <mxCell id="965ezOmiRfgiOUJlIT1A-54" value="" style="endArrow=none;html=1;rounded=0;entryX=0;entryY=0.5;entryDx=0;entryDy=0;" parent="1" target="965ezOmiRfgiOUJlIT1A-16" edge="1">
          <mxGeometry width="50" height="50" relative="1" as="geometry">
            <mxPoint x="900" y="1762" as="sourcePoint" />
            <mxPoint x="840" y="1602" as="targetPoint" />
          </mxGeometry>
        </mxCell>
        <mxCell id="965ezOmiRfgiOUJlIT1A-55" value="" style="triangle;whiteSpace=wrap;html=1;rotation=-180;" parent="1" vertex="1">
          <mxGeometry x="490" y="1950" width="30" height="40" as="geometry" />
        </mxCell>
        <mxCell id="965ezOmiRfgiOUJlIT1A-56" value="" style="endArrow=none;html=1;rounded=0;exitX=0;exitY=0.5;exitDx=0;exitDy=0;" parent="1" source="965ezOmiRfgiOUJlIT1A-55" edge="1">
          <mxGeometry width="50" height="50" relative="1" as="geometry">
            <mxPoint x="580" y="1960" as="sourcePoint" />
            <mxPoint x="550" y="1970" as="targetPoint" />
          </mxGeometry>
        </mxCell>
        <mxCell id="965ezOmiRfgiOUJlIT1A-57" value="" style="endArrow=none;html=1;rounded=0;" parent="1" edge="1">
          <mxGeometry width="50" height="50" relative="1" as="geometry">
            <mxPoint x="550" y="2010" as="sourcePoint" />
            <mxPoint x="550" y="1930" as="targetPoint" />
          </mxGeometry>
        </mxCell>
        <mxCell id="965ezOmiRfgiOUJlIT1A-58" value="" style="endArrow=none;html=1;rounded=0;entryX=0;entryY=0.5;entryDx=0;entryDy=0;" parent="1" target="965ezOmiRfgiOUJlIT1A-21" edge="1">
          <mxGeometry width="50" height="50" relative="1" as="geometry">
            <mxPoint x="550" y="1930" as="sourcePoint" />
            <mxPoint x="630" y="1910" as="targetPoint" />
          </mxGeometry>
        </mxCell>
        <mxCell id="965ezOmiRfgiOUJlIT1A-59" value="" style="endArrow=none;html=1;rounded=0;entryX=0;entryY=0.5;entryDx=0;entryDy=0;" parent="1" target="965ezOmiRfgiOUJlIT1A-22" edge="1">
          <mxGeometry width="50" height="50" relative="1" as="geometry">
            <mxPoint x="550" y="2010" as="sourcePoint" />
            <mxPoint x="630" y="1910" as="targetPoint" />
          </mxGeometry>
        </mxCell>
        <mxCell id="965ezOmiRfgiOUJlIT1A-60" value="" style="triangle;whiteSpace=wrap;html=1;rotation=-90;" parent="1" vertex="1">
          <mxGeometry x="385.01" y="2331" width="30" height="40" as="geometry" />
        </mxCell>
        <mxCell id="965ezOmiRfgiOUJlIT1A-61" value="" style="endArrow=none;html=1;rounded=0;exitX=0.5;exitY=1;exitDx=0;exitDy=0;" parent="1" edge="1" source="965ezOmiRfgiOUJlIT1A-23">
          <mxGeometry width="50" height="50" relative="1" as="geometry">
            <mxPoint x="400" y="2259" as="sourcePoint" />
            <mxPoint x="400" y="2335" as="targetPoint" />
          </mxGeometry>
        </mxCell>
        <mxCell id="965ezOmiRfgiOUJlIT1A-62" value="" style="endArrow=none;html=1;rounded=0;exitX=0;exitY=0.5;exitDx=0;exitDy=0;startArrow=none;" parent="1" source="965ezOmiRfgiOUJlIT1A-60" edge="1">
          <mxGeometry width="50" height="50" relative="1" as="geometry">
            <mxPoint x="580" y="2214.5" as="sourcePoint" />
            <mxPoint x="400" y="2440" as="targetPoint" />
          </mxGeometry>
        </mxCell>
        <mxCell id="965ezOmiRfgiOUJlIT1A-63" value="" style="endArrow=none;html=1;rounded=0;" parent="1" edge="1">
          <mxGeometry width="50" height="50" relative="1" as="geometry">
            <mxPoint x="320" y="2440" as="sourcePoint" />
            <mxPoint x="480" y="2440" as="targetPoint" />
          </mxGeometry>
        </mxCell>
        <mxCell id="965ezOmiRfgiOUJlIT1A-66" value="" style="endArrow=none;html=1;rounded=0;entryX=1;entryY=0.5;entryDx=0;entryDy=0;exitX=0;exitY=0.5;exitDx=0;exitDy=0;" parent="1" source="965ezOmiRfgiOUJlIT1A-6" target="965ezOmiRfgiOUJlIT1A-68" edge="1">
          <mxGeometry width="50" height="50" relative="1" as="geometry">
            <mxPoint x="630" y="1351.87" as="sourcePoint" />
            <mxPoint x="770" y="1311.87" as="targetPoint" />
          </mxGeometry>
        </mxCell>
        <mxCell id="965ezOmiRfgiOUJlIT1A-67" value="" style="shape=link;html=1;rounded=0;exitX=1;exitY=0.5;exitDx=0;exitDy=0;entryX=0.067;entryY=0.491;entryDx=0;entryDy=0;entryPerimeter=0;" parent="1" source="965ezOmiRfgiOUJlIT1A-2" target="965ezOmiRfgiOUJlIT1A-68" edge="1">
          <mxGeometry relative="1" as="geometry">
            <mxPoint x="470" y="1351.87" as="sourcePoint" />
            <mxPoint x="540" y="1351.87" as="targetPoint" />
          </mxGeometry>
        </mxCell>
        <mxCell id="965ezOmiRfgiOUJlIT1A-68" value="" style="rhombus;whiteSpace=wrap;html=1;" parent="1" vertex="1">
          <mxGeometry x="540" y="1331.87" width="40" height="40" as="geometry" />
        </mxCell>
        <mxCell id="965ezOmiRfgiOUJlIT1A-69" value="" style="rhombus;whiteSpace=wrap;html=1;" parent="1" vertex="1">
          <mxGeometry x="380" y="1450" width="40" height="40" as="geometry" />
        </mxCell>
        <mxCell id="965ezOmiRfgiOUJlIT1A-71" value="" style="shape=link;html=1;rounded=0;exitX=0.5;exitY=1;exitDx=0;exitDy=0;" parent="1" edge="1" source="965ezOmiRfgiOUJlIT1A-2">
          <mxGeometry relative="1" as="geometry">
            <mxPoint x="400" y="1390.87" as="sourcePoint" />
            <mxPoint x="400.00389117693635" y="1440" as="targetPoint" />
          </mxGeometry>
        </mxCell>
        <mxCell id="965ezOmiRfgiOUJlIT1A-72" value="" style="shape=image;html=1;verticalAlign=top;verticalLabelPosition=bottom;labelBackgroundColor=#ffffff;imageAspect=0;aspect=fixed;image=https://cdn4.iconfinder.com/data/icons/ionicons/512/icon-arrow-down-b-128.png;rotation=0;" parent="1" vertex="1">
          <mxGeometry x="384.23" y="1431" width="31.549999999999997" height="28" as="geometry" />
        </mxCell>
        <mxCell id="965ezOmiRfgiOUJlIT1A-73" value="" style="shape=image;html=1;verticalAlign=top;verticalLabelPosition=bottom;labelBackgroundColor=#ffffff;imageAspect=0;aspect=fixed;image=https://cdn4.iconfinder.com/data/icons/basic-user-interface-2/512/User_Interface-02-128.png" parent="1" vertex="1">
          <mxGeometry x="510" y="1595" width="40" height="40" as="geometry" />
        </mxCell>
        <mxCell id="965ezOmiRfgiOUJlIT1A-74" value="" style="shape=image;html=1;verticalAlign=top;verticalLabelPosition=bottom;labelBackgroundColor=#ffffff;imageAspect=0;aspect=fixed;image=https://cdn4.iconfinder.com/data/icons/basic-user-interface-2/512/User_Interface-02-128.png" parent="1" vertex="1">
          <mxGeometry x="840" y="1702" width="40" height="40" as="geometry" />
        </mxCell>
        <mxCell id="965ezOmiRfgiOUJlIT1A-75" value="" style="shape=link;html=1;rounded=0;entryX=0;entryY=0.5;entryDx=0;entryDy=0;exitX=1;exitY=0.5;exitDx=0;exitDy=0;" parent="1" target="965ezOmiRfgiOUJlIT1A-73" edge="1">
          <mxGeometry relative="1" as="geometry">
            <mxPoint x="460" y="1615" as="sourcePoint" />
            <mxPoint x="490" y="1650" as="targetPoint" />
          </mxGeometry>
        </mxCell>
        <mxCell id="965ezOmiRfgiOUJlIT1A-76" value="" style="shape=image;html=1;verticalAlign=top;verticalLabelPosition=bottom;labelBackgroundColor=#ffffff;imageAspect=0;aspect=fixed;image=https://cdn4.iconfinder.com/data/icons/basic-user-interface-2/512/User_Interface-02-128.png" parent="1" vertex="1">
          <mxGeometry x="490" y="1950" width="40" height="40" as="geometry" />
        </mxCell>
        <mxCell id="965ezOmiRfgiOUJlIT1A-77" value="" style="shape=link;html=1;rounded=0;exitX=1;exitY=0.5;exitDx=0;exitDy=0;" parent="1" edge="1">
          <mxGeometry relative="1" as="geometry">
            <mxPoint x="460" y="1969.7" as="sourcePoint" />
            <mxPoint x="490" y="1969.7" as="targetPoint" />
            <Array as="points">
              <mxPoint x="480" y="1969.7" />
            </Array>
          </mxGeometry>
        </mxCell>
        <mxCell id="965ezOmiRfgiOUJlIT1A-78" value="" style="rhombus;whiteSpace=wrap;html=1;" parent="1" vertex="1">
          <mxGeometry x="260" y="1331.87" width="40" height="40" as="geometry" />
        </mxCell>
        <mxCell id="965ezOmiRfgiOUJlIT1A-79" value="Ponto de retalho" style="shape=ext;margin=3;double=1;whiteSpace=wrap;html=1;align=center;" parent="1" vertex="1">
          <mxGeometry x="100" y="1321.87" width="120" height="60" as="geometry" />
        </mxCell>
        <mxCell id="965ezOmiRfgiOUJlIT1A-80" value="" style="rhombus;whiteSpace=wrap;html=1;" parent="1" vertex="1">
          <mxGeometry x="265" y="1336.87" width="30" height="30" as="geometry" />
        </mxCell>
        <mxCell id="965ezOmiRfgiOUJlIT1A-81" value="" style="shape=link;html=1;rounded=0;entryX=1.01;entryY=0.603;entryDx=0;entryDy=0;entryPerimeter=0;" parent="1" edge="1">
          <mxGeometry relative="1" as="geometry">
            <mxPoint x="250" y="1351.78" as="sourcePoint" />
            <mxPoint x="221.20000000000005" y="1351.96" as="targetPoint" />
          </mxGeometry>
        </mxCell>
        <mxCell id="965ezOmiRfgiOUJlIT1A-82" value="" style="shape=image;html=1;verticalAlign=top;verticalLabelPosition=bottom;labelBackgroundColor=#ffffff;imageAspect=0;aspect=fixed;image=https://cdn4.iconfinder.com/data/icons/ionicons/512/icon-arrow-down-b-128.png;rotation=-90;" parent="1" vertex="1">
          <mxGeometry x="240" y="1337.87" width="30.55" height="28" as="geometry" />
        </mxCell>
        <mxCell id="965ezOmiRfgiOUJlIT1A-83" value="" style="endArrow=none;html=1;rounded=0;entryX=0;entryY=0.5;entryDx=0;entryDy=0;" parent="1" target="965ezOmiRfgiOUJlIT1A-2" edge="1">
          <mxGeometry relative="1" as="geometry">
            <mxPoint x="300" y="1351.87" as="sourcePoint" />
            <mxPoint x="320" y="1341.87" as="targetPoint" />
          </mxGeometry>
        </mxCell>
        <mxCell id="965ezOmiRfgiOUJlIT1A-84" value="&lt; gerem" style="text;strokeColor=none;fillColor=none;spacingLeft=4;spacingRight=4;overflow=hidden;rotatable=0;points=[[0,0.5],[1,0.5]];portConstraint=eastwest;fontSize=12;" parent="1" vertex="1">
          <mxGeometry x="530" y="1307.87" width="60" height="30" as="geometry" />
        </mxCell>
        <mxCell id="965ezOmiRfgiOUJlIT1A-85" value="instalam &gt;" style="text;strokeColor=none;fillColor=none;spacingLeft=4;spacingRight=4;overflow=hidden;rotatable=0;points=[[0,0.5],[1,0.5]];portConstraint=eastwest;fontSize=12;" parent="1" vertex="1">
          <mxGeometry x="250" y="1301.87" width="70" height="30" as="geometry" />
        </mxCell>
        <mxCell id="965ezOmiRfgiOUJlIT1A-86" value="Contém &amp;gt;" style="text;html=1;strokeColor=none;fillColor=none;align=center;verticalAlign=middle;whiteSpace=wrap;rounded=0;rotation=90;" parent="1" vertex="1">
          <mxGeometry x="400" y="1455" width="60" height="30" as="geometry" />
        </mxCell>
        <mxCell id="965ezOmiRfgiOUJlIT1A-87" value="" style="shape=link;html=1;rounded=0;entryX=0;entryY=0.5;entryDx=0;entryDy=0;exitX=1;exitY=0.5;exitDx=0;exitDy=0;" parent="1" target="965ezOmiRfgiOUJlIT1A-74" edge="1">
          <mxGeometry relative="1" as="geometry">
            <mxPoint x="760" y="1721.77" as="sourcePoint" />
            <mxPoint x="810" y="1721.77" as="targetPoint" />
          </mxGeometry>
        </mxCell>
        <mxCell id="965ezOmiRfgiOUJlIT1A-88" value="" style="rhombus;whiteSpace=wrap;html=1;" parent="1" vertex="1">
          <mxGeometry x="260" y="2325" width="40" height="40" as="geometry" />
        </mxCell>
        <mxCell id="965ezOmiRfgiOUJlIT1A-92" value="" style="endArrow=none;html=1;rounded=0;" parent="1" edge="1">
          <mxGeometry width="50" height="50" relative="1" as="geometry">
            <mxPoint x="400" y="1810" as="sourcePoint" />
            <mxPoint x="400" y="1940" as="targetPoint" />
          </mxGeometry>
        </mxCell>
        <mxCell id="965ezOmiRfgiOUJlIT1A-93" value="" style="endArrow=none;html=1;rounded=0;entryX=0;entryY=0.5;entryDx=0;entryDy=0;exitX=1;exitY=0.5;exitDx=0;exitDy=0;" parent="1" source="965ezOmiRfgiOUJlIT1A-94" target="wEU2TF__uhwk8uHvpseI-27" edge="1">
          <mxGeometry width="50" height="50" relative="1" as="geometry">
            <mxPoint x="310" y="1790" as="sourcePoint" />
            <mxPoint x="345" y="1780" as="targetPoint" />
          </mxGeometry>
        </mxCell>
        <mxCell id="965ezOmiRfgiOUJlIT1A-94" value="Número de frentes visíveis de um produto" style="ellipse;whiteSpace=wrap;html=1;" parent="1" vertex="1">
          <mxGeometry x="142.5" y="1732" width="137.5" height="60" as="geometry" />
        </mxCell>
        <mxCell id="965ezOmiRfgiOUJlIT1A-95" value="" style="rhombus;whiteSpace=wrap;html=1;" parent="1" vertex="1">
          <mxGeometry x="385.28" y="1455" width="30" height="30" as="geometry" />
        </mxCell>
        <mxCell id="965ezOmiRfgiOUJlIT1A-96" value="Plateleira" style="shape=ext;margin=3;double=1;whiteSpace=wrap;html=1;align=center;" parent="1" vertex="1">
          <mxGeometry x="340" y="1585" width="120" height="60" as="geometry" />
        </mxCell>
        <mxCell id="965ezOmiRfgiOUJlIT1A-97" value="" style="endArrow=none;html=1;rounded=0;entryX=0;entryY=0.5;entryDx=0;entryDy=0;exitX=1;exitY=0.5;exitDx=0;exitDy=0;" parent="1" source="wEU2TF__uhwk8uHvpseI-17" target="wEU2TF__uhwk8uHvpseI-27" edge="1">
          <mxGeometry width="50" height="50" relative="1" as="geometry">
            <mxPoint x="272.59540115198934" y="1799.8157578781115" as="sourcePoint" />
            <mxPoint x="345" y="1780" as="targetPoint" />
          </mxGeometry>
        </mxCell>
        <mxCell id="965ezOmiRfgiOUJlIT1A-99" value="" style="rhombus;whiteSpace=wrap;html=1;" parent="1" vertex="1">
          <mxGeometry x="380" y="2100" width="40" height="40" as="geometry" />
        </mxCell>
        <mxCell id="965ezOmiRfgiOUJlIT1A-100" value="" style="shape=link;html=1;rounded=0;entryX=0.5;entryY=0;entryDx=0;entryDy=0;" parent="1" edge="1">
          <mxGeometry relative="1" as="geometry">
            <mxPoint x="400" y="2150" as="sourcePoint" />
            <mxPoint x="400" y="2195" as="targetPoint" />
          </mxGeometry>
        </mxCell>
        <mxCell id="965ezOmiRfgiOUJlIT1A-101" value="" style="shape=image;html=1;verticalAlign=top;verticalLabelPosition=bottom;labelBackgroundColor=#ffffff;imageAspect=0;aspect=fixed;image=https://cdn4.iconfinder.com/data/icons/ionicons/512/icon-arrow-down-b-128.png;rotation=-180;" parent="1" vertex="1">
          <mxGeometry x="384.73" y="2131" width="30.55" height="28" as="geometry" />
        </mxCell>
        <mxCell id="965ezOmiRfgiOUJlIT1A-102" value="" style="endArrow=none;html=1;rounded=0;entryX=0.5;entryY=1;entryDx=0;entryDy=0;exitX=0.5;exitY=0;exitDx=0;exitDy=0;" parent="1" source="965ezOmiRfgiOUJlIT1A-99" target="965ezOmiRfgiOUJlIT1A-17" edge="1">
          <mxGeometry relative="1" as="geometry">
            <mxPoint x="548" y="2066" as="sourcePoint" />
            <mxPoint x="593" y="2066" as="targetPoint" />
          </mxGeometry>
        </mxCell>
        <mxCell id="965ezOmiRfgiOUJlIT1A-103" value="pertence a&amp;nbsp;&amp;gt;" style="text;html=1;align=center;verticalAlign=middle;resizable=0;points=[];autosize=1;strokeColor=none;fillColor=none;rotation=90;" parent="1" vertex="1">
          <mxGeometry x="373" y="2046" width="80" height="20" as="geometry" />
        </mxCell>
        <mxCell id="965ezOmiRfgiOUJlIT1A-104" value="&amp;lt; existe" style="text;html=1;align=center;verticalAlign=middle;resizable=0;points=[];autosize=1;strokeColor=none;fillColor=none;rotation=90;" parent="1" vertex="1">
          <mxGeometry x="388" y="1870" width="60" height="20" as="geometry" />
        </mxCell>
        <mxCell id="965ezOmiRfgiOUJlIT1A-106" value="pertence &amp;gt;" style="text;html=1;align=center;verticalAlign=middle;resizable=0;points=[];autosize=1;strokeColor=none;fillColor=none;rotation=90;" parent="1" vertex="1">
          <mxGeometry x="230" y="2270" width="70" height="20" as="geometry" />
        </mxCell>
        <mxCell id="965ezOmiRfgiOUJlIT1A-107" value="" style="shape=image;html=1;verticalAlign=top;verticalLabelPosition=bottom;labelBackgroundColor=#ffffff;imageAspect=0;aspect=fixed;image=https://cdn4.iconfinder.com/data/icons/ionicons/512/icon-arrow-down-b-128.png;rotation=-180;" parent="1" vertex="1">
          <mxGeometry x="264.45000000000005" y="2356" width="30.55" height="28" as="geometry" />
        </mxCell>
        <mxCell id="965ezOmiRfgiOUJlIT1A-108" value="" style="shape=image;html=1;verticalAlign=top;verticalLabelPosition=bottom;labelBackgroundColor=#ffffff;imageAspect=0;aspect=fixed;image=https://cdn4.iconfinder.com/data/icons/basic-user-interface-2/512/User_Interface-02-128.png" parent="1" vertex="1">
          <mxGeometry x="380" y="2335" width="40" height="40" as="geometry" />
        </mxCell>
        <mxCell id="965ezOmiRfgiOUJlIT1A-110" value="" style="shape=link;html=1;rounded=0;exitX=0.917;exitY=-0.012;exitDx=0;exitDy=0;exitPerimeter=0;" parent="1" source="965ezOmiRfgiOUJlIT1A-23" edge="1">
          <mxGeometry relative="1" as="geometry">
            <mxPoint x="480" y="2140" as="sourcePoint" />
            <mxPoint x="570" y="1800" as="targetPoint" />
            <Array as="points">
              <mxPoint x="450" y="2080" />
              <mxPoint x="761" y="2080" />
              <mxPoint x="761" y="1800" />
            </Array>
          </mxGeometry>
        </mxCell>
        <mxCell id="965ezOmiRfgiOUJlIT1A-113" value="" style="rhombus;whiteSpace=wrap;html=1;" parent="1" vertex="1">
          <mxGeometry x="530" y="1780" width="40" height="40" as="geometry" />
        </mxCell>
        <mxCell id="965ezOmiRfgiOUJlIT1A-114" value="" style="rhombus;whiteSpace=wrap;html=1;" parent="1" vertex="1">
          <mxGeometry x="535" y="1785" width="30" height="30" as="geometry" />
        </mxCell>
        <mxCell id="965ezOmiRfgiOUJlIT1A-118" value="Tem" style="text;html=1;strokeColor=none;fillColor=none;align=center;verticalAlign=middle;whiteSpace=wrap;rounded=0;" parent="1" vertex="1">
          <mxGeometry x="520" y="1820" width="60" height="30" as="geometry" />
        </mxCell>
        <mxCell id="965ezOmiRfgiOUJlIT1A-122" value="" style="endArrow=none;html=1;rounded=0;exitX=0;exitY=0.5;exitDx=0;exitDy=0;entryX=1;entryY=0.75;entryDx=0;entryDy=0;" parent="1" source="965ezOmiRfgiOUJlIT1A-113" target="965ezOmiRfgiOUJlIT1A-96" edge="1">
          <mxGeometry width="50" height="50" relative="1" as="geometry">
            <mxPoint x="540" y="1810" as="sourcePoint" />
            <mxPoint x="460" y="1640" as="targetPoint" />
            <Array as="points">
              <mxPoint x="490" y="1800" />
              <mxPoint x="490" y="1630" />
            </Array>
          </mxGeometry>
        </mxCell>
        <mxCell id="965ezOmiRfgiOUJlIT1A-123" value="IC-1: dentro da mesma IVM o retalhista é responsável por apenas uma categoria.&lt;br&gt;IC-2: No reabastecimento de uma IVM o número de categorias repostas é igual ao número de retalhistas envolvidos na reposição.&lt;br&gt;IC-3: O número de unidades repostas não ultrapassa o número máximo de produtos descrito no planograma.&lt;br&gt;IC-4: O nome de cada retalhista é único." style="text;html=1;strokeColor=none;fillColor=none;align=left;verticalAlign=middle;whiteSpace=wrap;rounded=0;" parent="1" vertex="1">
          <mxGeometry x="-260" y="1020" width="340" height="120" as="geometry" />
        </mxCell>
        <mxCell id="965ezOmiRfgiOUJlIT1A-126" value="" style="shape=link;html=1;rounded=0;exitX=0.5;exitY=1;exitDx=0;exitDy=0;entryX=1;entryY=0.5;entryDx=0;entryDy=0;" parent="1" source="965ezOmiRfgiOUJlIT1A-6" target="965ezOmiRfgiOUJlIT1A-130" edge="1">
          <mxGeometry relative="1" as="geometry">
            <mxPoint x="560" y="1383" as="sourcePoint" />
            <mxPoint x="990" y="2170" as="targetPoint" />
            <Array as="points">
              <mxPoint x="810" y="2120" />
            </Array>
          </mxGeometry>
        </mxCell>
        <mxCell id="965ezOmiRfgiOUJlIT1A-130" value="" style="rhombus;whiteSpace=wrap;html=1;" parent="1" vertex="1">
          <mxGeometry x="645" y="2100" width="40" height="40" as="geometry" />
        </mxCell>
        <mxCell id="965ezOmiRfgiOUJlIT1A-133" value="" style="shape=link;html=1;rounded=0;entryX=0;entryY=0.5;entryDx=0;entryDy=0;exitX=1;exitY=0.5;exitDx=0;exitDy=0;" parent="1" source="965ezOmiRfgiOUJlIT1A-23" target="965ezOmiRfgiOUJlIT1A-130" edge="1">
          <mxGeometry relative="1" as="geometry">
            <mxPoint x="550" y="2119.23" as="sourcePoint" />
            <mxPoint x="630" y="2119.46" as="targetPoint" />
            <Array as="points">
              <mxPoint x="490" y="2225" />
              <mxPoint x="490" y="2160" />
              <mxPoint x="490" y="2120" />
            </Array>
          </mxGeometry>
        </mxCell>
        <mxCell id="965ezOmiRfgiOUJlIT1A-134" value="Responsável por &amp;gt;" style="text;html=1;strokeColor=none;fillColor=none;align=center;verticalAlign=middle;whiteSpace=wrap;rounded=0;rotation=90;" parent="1" vertex="1">
          <mxGeometry x="770" y="1450" width="120" height="30" as="geometry" />
        </mxCell>
        <mxCell id="wEU2TF__uhwk8uHvpseI-3" value="" style="rhombus;whiteSpace=wrap;html=1;" vertex="1" parent="1">
          <mxGeometry x="540" y="1420" width="40" height="40" as="geometry" />
        </mxCell>
        <mxCell id="wEU2TF__uhwk8uHvpseI-9" value="" style="endArrow=none;html=1;rounded=0;entryX=0.999;entryY=0.054;entryDx=0;entryDy=0;entryPerimeter=0;" edge="1" parent="1" target="965ezOmiRfgiOUJlIT1A-125">
          <mxGeometry width="50" height="50" relative="1" as="geometry">
            <mxPoint x="560" y="1460" as="sourcePoint" />
            <mxPoint x="480" y="1560" as="targetPoint" />
            <Array as="points">
              <mxPoint x="560" y="1560" />
            </Array>
          </mxGeometry>
        </mxCell>
        <mxCell id="wEU2TF__uhwk8uHvpseI-10" value="&amp;lt; Repõe" style="text;html=1;strokeColor=none;fillColor=none;align=center;verticalAlign=middle;whiteSpace=wrap;rounded=0;dashed=1;" vertex="1" parent="1">
          <mxGeometry x="580" y="1401" width="60" height="30" as="geometry" />
        </mxCell>
        <mxCell id="wEU2TF__uhwk8uHvpseI-12" value="" style="shape=link;html=1;rounded=0;entryX=0.25;entryY=1;entryDx=0;entryDy=0;exitX=0.941;exitY=0.502;exitDx=0;exitDy=0;exitPerimeter=0;" edge="1" parent="1" source="wEU2TF__uhwk8uHvpseI-3" target="965ezOmiRfgiOUJlIT1A-6">
          <mxGeometry relative="1" as="geometry">
            <mxPoint x="560" y="1410" as="sourcePoint" />
            <mxPoint x="640.0000000000001" y="1378.3299999999997" as="targetPoint" />
            <Array as="points">
              <mxPoint x="700" y="1440" />
              <mxPoint x="780" y="1440" />
            </Array>
          </mxGeometry>
        </mxCell>
        <mxCell id="wEU2TF__uhwk8uHvpseI-17" value="&amp;nbsp;Número máximo de unidades na prateleira." style="ellipse;whiteSpace=wrap;html=1;" vertex="1" parent="1">
          <mxGeometry x="142.5" y="1805" width="137.5" height="60" as="geometry" />
        </mxCell>
        <mxCell id="wEU2TF__uhwk8uHvpseI-18" value="" style="shape=link;html=1;rounded=0;entryX=0.5;entryY=0;entryDx=0;entryDy=0;exitX=0.5;exitY=1;exitDx=0;exitDy=0;" edge="1" parent="1" source="965ezOmiRfgiOUJlIT1A-96" target="wEU2TF__uhwk8uHvpseI-27">
          <mxGeometry relative="1" as="geometry">
            <mxPoint x="398.8263483146068" y="1645" as="sourcePoint" />
            <mxPoint x="400" y="1750" as="targetPoint" />
          </mxGeometry>
        </mxCell>
        <mxCell id="wEU2TF__uhwk8uHvpseI-21" value="" style="endArrow=none;html=1;rounded=0;exitX=0.5;exitY=0;exitDx=0;exitDy=0;" edge="1" parent="1" source="965ezOmiRfgiOUJlIT1A-96">
          <mxGeometry width="50" height="50" relative="1" as="geometry">
            <mxPoint x="430.0000000000002" y="1530" as="sourcePoint" />
            <mxPoint x="400" y="1490" as="targetPoint" />
          </mxGeometry>
        </mxCell>
        <mxCell id="wEU2TF__uhwk8uHvpseI-25" value="" style="shape=link;html=1;rounded=0;exitX=0.165;exitY=0.016;exitDx=0;exitDy=0;exitPerimeter=0;" edge="1" parent="1" source="965ezOmiRfgiOUJlIT1A-25">
          <mxGeometry relative="1" as="geometry">
            <mxPoint x="280" y="2465" as="sourcePoint" />
            <mxPoint x="280" y="2375" as="targetPoint" />
            <Array as="points" />
          </mxGeometry>
        </mxCell>
        <mxCell id="wEU2TF__uhwk8uHvpseI-27" value="" style="rhombus;whiteSpace=wrap;html=1;" vertex="1" parent="1">
          <mxGeometry x="380" y="1770" width="40" height="40" as="geometry" />
        </mxCell>
        <mxCell id="wEU2TF__uhwk8uHvpseI-33" value="&lt;span style=&quot;text-align: left;&quot;&gt;IC-2&lt;/span&gt;&lt;br&gt;IC-3" style="text;html=1;strokeColor=none;fillColor=none;align=center;verticalAlign=middle;whiteSpace=wrap;rounded=0;dashed=1;" vertex="1" parent="1">
          <mxGeometry x="480" y="1440" width="60" height="50" as="geometry" />
        </mxCell>
        <mxCell id="wEU2TF__uhwk8uHvpseI-35" value="IC-1" style="text;html=1;strokeColor=none;fillColor=none;align=center;verticalAlign=middle;whiteSpace=wrap;rounded=0;dashed=1;" vertex="1" parent="1">
          <mxGeometry x="680" y="2120" width="60" height="30" as="geometry" />
        </mxCell>
        <mxCell id="wEU2TF__uhwk8uHvpseI-37" value="" style="endArrow=none;html=1;rounded=0;entryX=0.5;entryY=0;entryDx=0;entryDy=0;" edge="1" parent="1" target="965ezOmiRfgiOUJlIT1A-25">
          <mxGeometry width="50" height="50" relative="1" as="geometry">
            <mxPoint x="320" y="2440" as="sourcePoint" />
            <mxPoint x="320" y="2480" as="targetPoint" />
          </mxGeometry>
        </mxCell>
        <mxCell id="wEU2TF__uhwk8uHvpseI-38" value="" style="endArrow=none;html=1;rounded=0;entryX=0.5;entryY=0;entryDx=0;entryDy=0;" edge="1" parent="1">
          <mxGeometry width="50" height="50" relative="1" as="geometry">
            <mxPoint x="479.56" y="2440" as="sourcePoint" />
            <mxPoint x="479.56" y="2480" as="targetPoint" />
          </mxGeometry>
        </mxCell>
        <mxCell id="wEU2TF__uhwk8uHvpseI-39" value="" style="shape=link;html=1;rounded=0;exitX=0.5;exitY=0;exitDx=0;exitDy=0;entryX=0;entryY=0.75;entryDx=0;entryDy=0;" edge="1" parent="1" source="965ezOmiRfgiOUJlIT1A-88" target="965ezOmiRfgiOUJlIT1A-23">
          <mxGeometry relative="1" as="geometry">
            <mxPoint x="320.00000000000017" y="2375" as="sourcePoint" />
            <mxPoint x="320.2" y="2269.04" as="targetPoint" />
            <Array as="points">
              <mxPoint x="280" y="2240" />
            </Array>
          </mxGeometry>
        </mxCell>
        <mxCell id="wEU2TF__uhwk8uHvpseI-40" value="&lt;span style=&quot;text-align: left;&quot;&gt;IC-4&lt;/span&gt;" style="text;html=1;strokeColor=none;fillColor=none;align=center;verticalAlign=middle;whiteSpace=wrap;rounded=0;dashed=1;rotation=20;" vertex="1" parent="1">
          <mxGeometry x="870" y="1380" width="60" height="30" as="geometry" />
        </mxCell>
      </root>
    </mxGraphModel>
  </diagram>
</mxfile>
